<?xml version="1.0" encoding="UTF-8" standalone="no"?>
<!DOCTYPE svg PUBLIC "-//W3C//DTD SVG 1.1//EN"
 "http://www.w3.org/Graphics/SVG/1.1/DTD/svg11.dtd">
<!-- Generated by graphviz version 2.43.0 (0)
 -->
<!-- Title: %3 Pages: 1 -->
<svg width="269pt" height="244pt"
 viewBox="0.00 0.00 269.00 244.00" xmlns="http://www.w3.org/2000/svg" xmlns:xlink="http://www.w3.org/1999/xlink">
<g id="graph0" class="graph" transform="scale(1 1) rotate(0) translate(4 240)">
<title>%3</title>
<polygon fill="white" stroke="transparent" points="-4,4 -4,-240 265,-240 265,4 -4,4"/>
<!-- 1 -->
<g id="node1" class="node">
<title>1</title>
<polygon fill="#ff0000" stroke="#ff0000" points="61,-52 0,-52 0,0 61,0 61,-52"/>
<text text-anchor="middle" x="30.5" y="-40" font-family="Arial" font-size="10.00" fill="#ffffff">push</text>
<text text-anchor="middle" x="30.5" y="-29" font-family="Arial" font-size="10.00" fill="#ffffff">100.00%</text>
<text text-anchor="middle" x="30.5" y="-18" font-family="Arial" font-size="10.00" fill="#ffffff">(100.00%)</text>
<text text-anchor="middle" x="30.5" y="-7" font-family="Arial" font-size="10.00" fill="#ffffff">13×</text>
</g>
<!-- 2 -->
<g id="node2" class="node">
<title>2</title>
<polygon fill="#ff0000" stroke="#ff0000" points="140,-52 79,-52 79,0 140,0 140,-52"/>
<text text-anchor="middle" x="109.5" y="-40" font-family="Arial" font-size="10.00" fill="#ffffff">pop</text>
<text text-anchor="middle" x="109.5" y="-29" font-family="Arial" font-size="10.00" fill="#ffffff">100.00%</text>
<text text-anchor="middle" x="109.5" y="-18" font-family="Arial" font-size="10.00" fill="#ffffff">(100.00%)</text>
<text text-anchor="middle" x="109.5" y="-7" font-family="Arial" font-size="10.00" fill="#ffffff">4×</text>
</g>
<!-- 3 -->
<g id="node3" class="node">
<title>3</title>
<polygon fill="#ff0000" stroke="#ff0000" points="158.5,-236 60.5,-236 60.5,-184 158.5,-184 158.5,-236"/>
<text text-anchor="middle" x="109.5" y="-224" font-family="Arial" font-size="10.00" fill="#ffffff">check_hamiltonian</text>
<text text-anchor="middle" x="109.5" y="-213" font-family="Arial" font-size="10.00" fill="#ffffff">100.00%</text>
<text text-anchor="middle" x="109.5" y="-202" font-family="Arial" font-size="10.00" fill="#ffffff">(100.00%)</text>
<text text-anchor="middle" x="109.5" y="-191" font-family="Arial" font-size="10.00" fill="#ffffff">1×</text>
</g>
<!-- 3&#45;&gt;1 -->
<g id="edge1" class="edge">
<title>3&#45;&gt;1</title>
<path fill="none" stroke="#ff0000" stroke-width="4" d="M62.65,-183.71C48.36,-173.43 34.35,-160.13 26.5,-144 14.12,-118.58 16.38,-86.23 21.02,-62"/>
<polygon fill="#ff0000" stroke="#ff0000" stroke-width="4" points="24.46,-62.66 23.12,-52.15 17.61,-61.2 24.46,-62.66"/>
<text text-anchor="middle" x="46" y="-121" font-family="Arial" font-size="10.00" fill="#ff0000">100.00%</text>
<text text-anchor="middle" x="46" y="-110" font-family="Arial" font-size="10.00" fill="#ff0000">1×</text>
</g>
<!-- 5 -->
<g id="node4" class="node">
<title>5</title>
<polygon fill="#ff0000" stroke="#ff0000" points="149,-144 70,-144 70,-92 149,-92 149,-144"/>
<text text-anchor="middle" x="109.5" y="-132" font-family="Arial" font-size="10.00" fill="#ffffff">is_hamiltonian</text>
<text text-anchor="middle" x="109.5" y="-121" font-family="Arial" font-size="10.00" fill="#ffffff">100.00%</text>
<text text-anchor="middle" x="109.5" y="-110" font-family="Arial" font-size="10.00" fill="#ffffff">(100.00%)</text>
<text text-anchor="middle" x="109.5" y="-99" font-family="Arial" font-size="10.00" fill="#ffffff">12×</text>
</g>
<!-- 3&#45;&gt;5 -->
<g id="edge2" class="edge">
<title>3&#45;&gt;5</title>
<path fill="none" stroke="#ff0000" stroke-width="4" d="M109.5,-183.93C109.5,-174.74 109.5,-164.17 109.5,-154.25"/>
<polygon fill="#ff0000" stroke="#ff0000" stroke-width="4" points="113,-154.25 109.5,-144.25 106,-154.25 113,-154.25"/>
<text text-anchor="middle" x="129" y="-167" font-family="Arial" font-size="10.00" fill="#ff0000">100.00%</text>
<text text-anchor="middle" x="129" y="-156" font-family="Arial" font-size="10.00" fill="#ff0000">1×</text>
</g>
<!-- 6 -->
<g id="node5" class="node">
<title>6</title>
<polygon fill="#ff0000" stroke="#ff0000" points="261,-144 192,-144 192,-92 261,-92 261,-144"/>
<text text-anchor="middle" x="226.5" y="-132" font-family="Arial" font-size="10.00" fill="#ffffff">show_stack</text>
<text text-anchor="middle" x="226.5" y="-121" font-family="Arial" font-size="10.00" fill="#ffffff">100.00%</text>
<text text-anchor="middle" x="226.5" y="-110" font-family="Arial" font-size="10.00" fill="#ffffff">(100.00%)</text>
<text text-anchor="middle" x="226.5" y="-99" font-family="Arial" font-size="10.00" fill="#ffffff">1×</text>
</g>
<!-- 3&#45;&gt;6 -->
<g id="edge3" class="edge">
<title>3&#45;&gt;6</title>
<path fill="none" stroke="#ff0000" stroke-width="4" d="M142.09,-183.93C155.54,-173.58 171.29,-161.47 185.51,-150.53"/>
<polygon fill="#ff0000" stroke="#ff0000" stroke-width="4" points="187.89,-153.12 193.68,-144.25 183.62,-147.57 187.89,-153.12"/>
<text text-anchor="middle" x="202" y="-167" font-family="Arial" font-size="10.00" fill="#ff0000">100.00%</text>
<text text-anchor="middle" x="202" y="-156" font-family="Arial" font-size="10.00" fill="#ff0000">1×</text>
</g>
<!-- 5&#45;&gt;1 -->
<g id="edge4" class="edge">
<title>5&#45;&gt;1</title>
<path fill="none" stroke="#ff0000" stroke-width="4" d="M77.35,-91.86C74.24,-88.99 71.24,-86.01 68.5,-83 62.37,-76.25 56.46,-68.44 51.21,-60.84"/>
<polygon fill="#ff0000" stroke="#ff0000" stroke-width="4" points="53.83,-58.46 45.36,-52.09 48,-62.35 53.83,-58.46"/>
<text text-anchor="middle" x="88" y="-75" font-family="Arial" font-size="10.00" fill="#ff0000">100.00%</text>
<text text-anchor="middle" x="88" y="-64" font-family="Arial" font-size="10.00" fill="#ff0000">12×</text>
</g>
<!-- 5&#45;&gt;2 -->
<g id="edge5" class="edge">
<title>5&#45;&gt;2</title>
<path fill="none" stroke="#ff0000" stroke-width="4" d="M109.5,-91.93C109.5,-82.74 109.5,-72.17 109.5,-62.25"/>
<polygon fill="#ff0000" stroke="#ff0000" stroke-width="4" points="113,-62.25 109.5,-52.25 106,-62.25 113,-62.25"/>
<text text-anchor="middle" x="129" y="-75" font-family="Arial" font-size="10.00" fill="#ff0000">100.00%</text>
<text text-anchor="middle" x="129" y="-64" font-family="Arial" font-size="10.00" fill="#ff0000">4×</text>
</g>
<!-- 5&#45;&gt;5 -->
<g id="edge6" class="edge">
<title>5&#45;&gt;5</title>
<path fill="none" stroke="#ff0000" stroke-width="4" d="M149.27,-125.61C154.52,-124.31 158,-121.77 158,-118 158,-117.29 157.88,-116.63 157.64,-116.01"/>
<polygon fill="#ff0000" stroke="#ff0000" stroke-width="4" points="159.53,-113.06 149.27,-110.39 155.63,-118.87 159.53,-113.06"/>
<text text-anchor="middle" x="166" y="-115.5" font-family="Arial" font-size="10.00" fill="#ff0000">11×</text>
</g>
<!-- 4 -->
<g id="node6" class="node">
<title>4</title>
<polygon fill="#ff0000" stroke="#ff0000" points="229,-236 168,-236 168,-184 229,-184 229,-236"/>
<text text-anchor="middle" x="198.5" y="-224" font-family="Arial" font-size="10.00" fill="#ffffff">init_graph</text>
<text text-anchor="middle" x="198.5" y="-213" font-family="Arial" font-size="10.00" fill="#ffffff">100.00%</text>
<text text-anchor="middle" x="198.5" y="-202" font-family="Arial" font-size="10.00" fill="#ffffff">(100.00%)</text>
<text text-anchor="middle" x="198.5" y="-191" font-family="Arial" font-size="10.00" fill="#ffffff">1×</text>
</g>
</g>
</svg>
