<?xml version="1.0" encoding="UTF-8" standalone="no"?>
<!DOCTYPE svg PUBLIC "-//W3C//DTD SVG 1.1//EN"
 "http://www.w3.org/Graphics/SVG/1.1/DTD/svg11.dtd">
<!-- Generated by graphviz version 2.43.0 (0)
 -->
<!-- Title: %3 Pages: 1 -->
<svg width="251pt" height="325pt"
 viewBox="0.00 0.00 251.00 325.00" xmlns="http://www.w3.org/2000/svg" xmlns:xlink="http://www.w3.org/1999/xlink">
<g id="graph0" class="graph" transform="scale(1 1) rotate(0) translate(4 321)">
<title>%3</title>
<polygon fill="white" stroke="transparent" points="-4,4 -4,-321 247,-321 247,4 -4,4"/>
<!-- 1 -->
<g id="node1" class="node">
<title>1</title>
<polygon fill="#ff0000" stroke="#ff0000" points="142.5,-317 87.5,-317 87.5,-276 142.5,-276 142.5,-317"/>
<text text-anchor="middle" x="115" y="-305" font-family="Arial" font-size="10.00" fill="#ffffff">main</text>
<text text-anchor="middle" x="115" y="-294" font-family="Arial" font-size="10.00" fill="#ffffff">100.00%</text>
<text text-anchor="middle" x="115" y="-283" font-family="Arial" font-size="10.00" fill="#ffffff">(0.08%)</text>
</g>
<!-- 2 -->
<g id="node2" class="node">
<title>2</title>
<polygon fill="#ff0100" stroke="#ff0100" points="164,-236 66,-236 66,-184 164,-184 164,-236"/>
<text text-anchor="middle" x="115" y="-224" font-family="Arial" font-size="10.00" fill="#ffffff">check_hamiltonian</text>
<text text-anchor="middle" x="115" y="-213" font-family="Arial" font-size="10.00" fill="#ffffff">99.92%</text>
<text text-anchor="middle" x="115" y="-202" font-family="Arial" font-size="10.00" fill="#ffffff">(0.00%)</text>
<text text-anchor="middle" x="115" y="-191" font-family="Arial" font-size="10.00" fill="#ffffff">1×</text>
</g>
<!-- 1&#45;&gt;2 -->
<g id="edge1" class="edge">
<title>1&#45;&gt;2</title>
<path fill="none" stroke="#ff0100" stroke-width="4" d="M115,-275.9C115,-267.14 115,-256.55 115,-246.47"/>
<polygon fill="#ff0100" stroke="#ff0100" stroke-width="4" points="118.5,-246.27 115,-236.27 111.5,-246.27 118.5,-246.27"/>
<text text-anchor="middle" x="132" y="-259" font-family="Arial" font-size="10.00" fill="#ff0100">99.92%</text>
<text text-anchor="middle" x="132" y="-248" font-family="Arial" font-size="10.00" fill="#ff0100">1×</text>
</g>
<!-- 3 -->
<g id="node3" class="node">
<title>3</title>
<polygon fill="#ff0100" stroke="#ff0100" points="177,-144 53,-144 53,-92 177,-92 177,-144"/>
<text text-anchor="middle" x="115" y="-132" font-family="Arial" font-size="10.00" fill="#ffffff">num_hamiltonian_cycles</text>
<text text-anchor="middle" x="115" y="-121" font-family="Arial" font-size="10.00" fill="#ffffff">99.92%</text>
<text text-anchor="middle" x="115" y="-110" font-family="Arial" font-size="10.00" fill="#ffffff">(49.62%)</text>
<text text-anchor="middle" x="115" y="-99" font-family="Arial" font-size="10.00" fill="#ffffff">18118326×</text>
</g>
<!-- 2&#45;&gt;3 -->
<g id="edge2" class="edge">
<title>2&#45;&gt;3</title>
<path fill="none" stroke="#ff0100" stroke-width="4" d="M115,-183.93C115,-174.74 115,-164.17 115,-154.25"/>
<polygon fill="#ff0100" stroke="#ff0100" stroke-width="4" points="118.5,-154.25 115,-144.25 111.5,-154.25 118.5,-154.25"/>
<text text-anchor="middle" x="132" y="-167" font-family="Arial" font-size="10.00" fill="#ff0100">99.92%</text>
<text text-anchor="middle" x="132" y="-156" font-family="Arial" font-size="10.00" fill="#ff0100">1×</text>
</g>
<!-- 3&#45;&gt;3 -->
<g id="edge3" class="edge">
<title>3&#45;&gt;3</title>
<path fill="none" stroke="#ff0100" stroke-width="4" d="M177.31,-124.73C182.66,-123.3 186,-121.05 186,-118 186,-117.52 185.92,-117.07 185.76,-116.63"/>
<polygon fill="#ff0100" stroke="#ff0100" stroke-width="4" points="187.63,-113.67 177.31,-111.27 183.88,-119.58 187.63,-113.67"/>
<text text-anchor="middle" x="210" y="-115.5" font-family="Arial" font-size="10.00" fill="#ff0100">18118325×</text>
</g>
<!-- 4 -->
<g id="node4" class="node">
<title>4</title>
<polygon fill="#0ab317" stroke="#0ab317" points="74,-52 0,-52 0,0 74,0 74,-52"/>
<text text-anchor="middle" x="37" y="-40" font-family="Arial" font-size="10.00" fill="#ffffff">top</text>
<text text-anchor="middle" x="37" y="-29" font-family="Arial" font-size="10.00" fill="#ffffff">48.04%</text>
<text text-anchor="middle" x="37" y="-18" font-family="Arial" font-size="10.00" fill="#ffffff">(48.04%)</text>
<text text-anchor="middle" x="37" y="-7" font-family="Arial" font-size="10.00" fill="#ffffff">1811832600×</text>
</g>
<!-- 3&#45;&gt;4 -->
<g id="edge4" class="edge">
<title>3&#45;&gt;4</title>
<path fill="none" stroke="#0ab317" stroke-width="1.92" d="M63.97,-92C60.69,-89.25 57.65,-86.25 55,-83 49.35,-76.06 45.46,-67.32 42.79,-58.81"/>
<polygon fill="#0ab317" stroke="#0ab317" stroke-width="1.92" points="45.09,-58.07 40.9,-52.08 40.44,-59.38 45.09,-58.07"/>
<text text-anchor="middle" x="84" y="-75" font-family="Arial" font-size="10.00" fill="#0ab317">48.04%</text>
<text text-anchor="middle" x="84" y="-64" font-family="Arial" font-size="10.00" fill="#0ab317">1811832600×</text>
</g>
<!-- 5 -->
<g id="node5" class="node">
<title>5</title>
<polygon fill="#0d1375" stroke="#0d1375" points="147,-52 83,-52 83,0 147,0 147,-52"/>
<text text-anchor="middle" x="115" y="-40" font-family="Arial" font-size="10.00" fill="#ffffff">push</text>
<text text-anchor="middle" x="115" y="-29" font-family="Arial" font-size="10.00" fill="#ffffff">1.42%</text>
<text text-anchor="middle" x="115" y="-18" font-family="Arial" font-size="10.00" fill="#ffffff">(1.42%)</text>
<text text-anchor="middle" x="115" y="-7" font-family="Arial" font-size="10.00" fill="#ffffff">18118326×</text>
</g>
<!-- 3&#45;&gt;5 -->
<g id="edge5" class="edge">
<title>3&#45;&gt;5</title>
<path fill="none" stroke="#0d1375" stroke-width="0.5" d="M115,-91.93C115,-80.71 115,-67.42 115,-55.8"/>
<polygon fill="#0d1375" stroke="#0d1375" stroke-width="0.5" points="116.23,-55.75 115,-52.25 113.78,-55.75 116.23,-55.75"/>
<text text-anchor="middle" x="139" y="-75" font-family="Arial" font-size="10.00" fill="#0d1375">1.42%</text>
<text text-anchor="middle" x="139" y="-64" font-family="Arial" font-size="10.00" fill="#0d1375">18118325×</text>
</g>
<!-- 6 -->
<g id="node6" class="node">
<title>6</title>
<polygon fill="#0d1074" stroke="#0d1074" points="220,-52 156,-52 156,0 220,0 220,-52"/>
<text text-anchor="middle" x="188" y="-40" font-family="Arial" font-size="10.00" fill="#ffffff">pop</text>
<text text-anchor="middle" x="188" y="-29" font-family="Arial" font-size="10.00" fill="#ffffff">0.84%</text>
<text text-anchor="middle" x="188" y="-18" font-family="Arial" font-size="10.00" fill="#ffffff">(0.84%)</text>
<text text-anchor="middle" x="188" y="-7" font-family="Arial" font-size="10.00" fill="#ffffff">18118325×</text>
</g>
<!-- 3&#45;&gt;6 -->
<g id="edge6" class="edge">
<title>3&#45;&gt;6</title>
<path fill="none" stroke="#0d1074" stroke-width="0.5" d="M156.55,-91.76C159.62,-89.02 162.49,-86.1 165,-83 171.49,-75 176.38,-64.93 179.94,-55.53"/>
<polygon fill="#0d1074" stroke="#0d1074" stroke-width="0.5" points="181.15,-55.82 181.2,-52.11 178.84,-54.97 181.15,-55.82"/>
<text text-anchor="middle" x="201" y="-75" font-family="Arial" font-size="10.00" fill="#0d1074">0.84%</text>
<text text-anchor="middle" x="201" y="-64" font-family="Arial" font-size="10.00" fill="#0d1074">18118325×</text>
</g>
</g>
</svg>
