<?xml version="1.0" encoding="UTF-8" standalone="no"?>
<!DOCTYPE svg PUBLIC "-//W3C//DTD SVG 1.1//EN"
 "http://www.w3.org/Graphics/SVG/1.1/DTD/svg11.dtd">
<!-- Generated by graphviz version 2.43.0 (0)
 -->
<!-- Title: %3 Pages: 1 -->
<svg width="172pt" height="325pt"
 viewBox="0.00 0.00 172.00 325.00" xmlns="http://www.w3.org/2000/svg" xmlns:xlink="http://www.w3.org/1999/xlink">
<g id="graph0" class="graph" transform="scale(1 1) rotate(0) translate(4 321)">
<title>%3</title>
<polygon fill="white" stroke="transparent" points="-4,4 -4,-321 168,-321 168,4 -4,4"/>
<!-- 1 -->
<g id="node1" class="node">
<title>1</title>
<polygon fill="#ff0000" stroke="#ff0000" points="112.5,-236 14.5,-236 14.5,-184 112.5,-184 112.5,-236"/>
<text text-anchor="middle" x="63.5" y="-224" font-family="Arial" font-size="10.00" fill="#ffffff">check_hamiltonian</text>
<text text-anchor="middle" x="63.5" y="-213" font-family="Arial" font-size="10.00" fill="#ffffff">100.00%</text>
<text text-anchor="middle" x="63.5" y="-202" font-family="Arial" font-size="10.00" fill="#ffffff">(0.00%)</text>
<text text-anchor="middle" x="63.5" y="-191" font-family="Arial" font-size="10.00" fill="#ffffff">1×</text>
</g>
<!-- 3 -->
<g id="node2" class="node">
<title>3</title>
<polygon fill="#ff0000" stroke="#ff0000" points="103,-144 24,-144 24,-92 103,-92 103,-144"/>
<text text-anchor="middle" x="63.5" y="-132" font-family="Arial" font-size="10.00" fill="#ffffff">is_hamiltonian</text>
<text text-anchor="middle" x="63.5" y="-121" font-family="Arial" font-size="10.00" fill="#ffffff">100.00%</text>
<text text-anchor="middle" x="63.5" y="-110" font-family="Arial" font-size="10.00" fill="#ffffff">(97.78%)</text>
<text text-anchor="middle" x="63.5" y="-99" font-family="Arial" font-size="10.00" fill="#ffffff">3344455×</text>
</g>
<!-- 1&#45;&gt;3 -->
<g id="edge1" class="edge">
<title>1&#45;&gt;3</title>
<path fill="none" stroke="#ff0000" stroke-width="4" d="M63.5,-183.93C63.5,-174.74 63.5,-164.17 63.5,-154.25"/>
<polygon fill="#ff0000" stroke="#ff0000" stroke-width="4" points="67,-154.25 63.5,-144.25 60,-154.25 67,-154.25"/>
<text text-anchor="middle" x="83" y="-167" font-family="Arial" font-size="10.00" fill="#ff0000">100.00%</text>
<text text-anchor="middle" x="83" y="-156" font-family="Arial" font-size="10.00" fill="#ff0000">1×</text>
</g>
<!-- 3&#45;&gt;3 -->
<g id="edge3" class="edge">
<title>3&#45;&gt;3</title>
<path fill="none" stroke="#ff0000" stroke-width="4" d="M103.27,-125.61C108.52,-124.31 112,-121.77 112,-118 112,-117.29 111.88,-116.63 111.64,-116.01"/>
<polygon fill="#ff0000" stroke="#ff0000" stroke-width="4" points="113.53,-113.06 103.27,-110.39 109.63,-118.87 113.53,-113.06"/>
<text text-anchor="middle" x="133.5" y="-115.5" font-family="Arial" font-size="10.00" fill="#ff0000">3344454×</text>
</g>
<!-- 4 -->
<g id="node4" class="node">
<title>4</title>
<polygon fill="#0d1174" stroke="#0d1174" points="59,-52 0,-52 0,0 59,0 59,-52"/>
<text text-anchor="middle" x="29.5" y="-40" font-family="Arial" font-size="10.00" fill="#ffffff">push</text>
<text text-anchor="middle" x="29.5" y="-29" font-family="Arial" font-size="10.00" fill="#ffffff">1.11%</text>
<text text-anchor="middle" x="29.5" y="-18" font-family="Arial" font-size="10.00" fill="#ffffff">(1.11%)</text>
<text text-anchor="middle" x="29.5" y="-7" font-family="Arial" font-size="10.00" fill="#ffffff">3344455×</text>
</g>
<!-- 3&#45;&gt;4 -->
<g id="edge4" class="edge">
<title>3&#45;&gt;4</title>
<path fill="none" stroke="#0d1174" stroke-width="0.5" d="M47.61,-91.78C46.1,-88.88 44.69,-85.92 43.5,-83 39.98,-74.4 37.17,-64.68 35.02,-55.78"/>
<polygon fill="#0d1174" stroke="#0d1174" stroke-width="0.5" points="36.14,-55.15 34.14,-52.02 33.75,-55.71 36.14,-55.15"/>
<text text-anchor="middle" x="65" y="-75" font-family="Arial" font-size="10.00" fill="#0d1174">1.11%</text>
<text text-anchor="middle" x="65" y="-64" font-family="Arial" font-size="10.00" fill="#0d1174">3344454×</text>
</g>
<!-- 5 -->
<g id="node5" class="node">
<title>5</title>
<polygon fill="#0d1174" stroke="#0d1174" points="127,-52 68,-52 68,0 127,0 127,-52"/>
<text text-anchor="middle" x="97.5" y="-40" font-family="Arial" font-size="10.00" fill="#ffffff">pop</text>
<text text-anchor="middle" x="97.5" y="-29" font-family="Arial" font-size="10.00" fill="#ffffff">1.11%</text>
<text text-anchor="middle" x="97.5" y="-18" font-family="Arial" font-size="10.00" fill="#ffffff">(1.11%)</text>
<text text-anchor="middle" x="97.5" y="-7" font-family="Arial" font-size="10.00" fill="#ffffff">3344454×</text>
</g>
<!-- 3&#45;&gt;5 -->
<g id="edge5" class="edge">
<title>3&#45;&gt;5</title>
<path fill="none" stroke="#0d1174" stroke-width="0.5" d="M80.26,-91.86C81.83,-88.94 83.28,-85.95 84.5,-83 88.03,-74.44 90.7,-64.73 92.68,-55.83"/>
<polygon fill="#0d1174" stroke="#0d1174" stroke-width="0.5" points="93.95,-55.75 93.49,-52.07 91.56,-55.24 93.95,-55.75"/>
<text text-anchor="middle" x="112" y="-75" font-family="Arial" font-size="10.00" fill="#0d1174">1.11%</text>
<text text-anchor="middle" x="112" y="-64" font-family="Arial" font-size="10.00" fill="#0d1174">3344454×</text>
</g>
<!-- 2 -->
<g id="node3" class="node">
<title>2</title>
<polygon fill="#ff0000" stroke="#ff0000" points="91,-317 36,-317 36,-276 91,-276 91,-317"/>
<text text-anchor="middle" x="63.5" y="-305" font-family="Arial" font-size="10.00" fill="#ffffff">main</text>
<text text-anchor="middle" x="63.5" y="-294" font-family="Arial" font-size="10.00" fill="#ffffff">100.00%</text>
<text text-anchor="middle" x="63.5" y="-283" font-family="Arial" font-size="10.00" fill="#ffffff">(0.00%)</text>
</g>
<!-- 2&#45;&gt;1 -->
<g id="edge2" class="edge">
<title>2&#45;&gt;1</title>
<path fill="none" stroke="#ff0000" stroke-width="4" d="M63.5,-275.9C63.5,-267.14 63.5,-256.55 63.5,-246.47"/>
<polygon fill="#ff0000" stroke="#ff0000" stroke-width="4" points="67,-246.27 63.5,-236.27 60,-246.27 67,-246.27"/>
<text text-anchor="middle" x="83" y="-259" font-family="Arial" font-size="10.00" fill="#ff0000">100.00%</text>
<text text-anchor="middle" x="83" y="-248" font-family="Arial" font-size="10.00" fill="#ff0000">1×</text>
</g>
</g>
</svg>
